<svg width="17" height="18" viewBox="0 0 17 18" fill="none" xmlns="http://www.w3.org/2000/svg">
<path d="M16.7014 16.465L13.2496 13.0132C14.4686 11.5615 15.0801 9.69526 14.9566 7.80367C14.8332 5.91208 13.9842 4.14117 12.5869 2.86023C11.1895 1.5793 9.35166 0.887242 7.45649 0.928369C5.56132 0.969496 3.75518 1.74064 2.41472 3.08098C1.07426 4.42132 0.30296 6.22739 0.261666 8.12256C0.220372 10.0177 0.912271 11.8557 2.19308 13.2531C3.47388 14.6506 5.24472 15.4997 7.1363 15.6233C9.02788 15.7469 10.8942 15.1356 12.346 13.9167L15.7978 17.3686C15.9176 17.4884 16.0801 17.5557 16.2496 17.5557C16.419 17.5557 16.5815 17.4884 16.7014 17.3686C16.8212 17.2488 16.8885 17.0863 16.8885 16.9168C16.8885 16.7474 16.8212 16.5849 16.7014 16.465ZM1.55563 8.29173C1.55563 7.09131 1.91159 5.91784 2.57851 4.91973C3.24543 3.92161 4.19335 3.14367 5.3024 2.68429C6.41144 2.22491 7.6318 2.10472 8.80916 2.33891C9.98652 2.5731 11.068 3.15116 11.9168 3.99998C12.7656 4.84881 13.3437 5.93028 13.5779 7.10764C13.8121 8.285 13.6919 9.50536 13.2325 10.6144C12.7731 11.7235 11.9952 12.6714 10.9971 13.3383C9.99896 14.0052 8.82549 14.3612 7.62507 14.3612C6.01591 14.3594 4.47318 13.7193 3.33533 12.5815C2.19749 11.4436 1.55744 9.90089 1.55563 8.29173Z" fill="#4B4B4B"/>
</svg>
